<svg width="25" height="24" viewBox="0 0 25 24" fill="none" xmlns="http://www.w3.org/2000/svg">
<g clip-path="url(#clip0_3012_2502)">
<path d="M23.8138 13.2397V21.4596C23.7905 22.4155 23.327 22.9435 22.3697 23.023C21.2713 23.1135 20.1673 23.1711 19.0648 23.2369C16.8432 23.3741 14.6211 23.5085 12.3986 23.6401C10.4307 23.7567 8.46278 23.8595 6.49762 23.9925C5.62818 24.0488 4.94387 23.7745 4.46253 23.0285C4.3199 22.8077 4.13751 22.6088 3.97569 22.3977C3.15288 21.3362 2.33692 20.272 1.50999 19.2161C0.95422 18.5346 0.659141 17.6776 0.677572 16.7984C0.704999 12.1221 0.688543 7.44846 0.691285 2.7735C0.691285 2.59705 0.704999 2.42152 0.732426 2.2469C0.858591 1.56122 1.28371 1.1361 1.97762 1.07027C3.11311 0.963305 4.26642 0.889252 5.41151 0.802856L10.8832 0.399676C12.6358 0.27214 14.3884 0.150089 16.141 0.0115814C17.0195 -0.05965 17.8929 0.199536 18.5903 0.738402C20.1344 1.8588 21.7033 2.94218 23.2694 4.03515C23.4506 4.15145 23.5975 4.31413 23.6946 4.50632C23.7918 4.69851 23.8358 4.9132 23.822 5.12812C23.8069 7.83107 23.8138 10.5354 23.8138 13.2397ZM22.2203 6.34589C22.2203 5.67118 21.983 5.43805 21.3289 5.47645L15.6377 5.80009L8.65751 6.20876C7.83744 6.25538 7.01737 6.30567 6.19729 6.35961C5.76257 6.38978 5.5651 6.58177 5.50064 7.00826C5.48419 7.13168 5.47733 7.2551 5.48007 7.37853V20.9001C5.48007 21.952 5.75983 22.2153 6.81578 22.1536C7.87172 22.0918 8.9263 22.0233 9.99322 21.9616L21.2919 21.3129C21.898 21.2786 22.1736 21.0112 22.2216 20.4092C22.2299 20.3036 22.2216 20.198 22.2216 20.0855L22.2203 6.34589ZM20.5102 3.86099L20.5472 3.79105C20.4644 3.68933 20.3726 3.59524 20.2729 3.50992C19.5242 2.96275 18.7672 2.42655 18.0198 1.8876C17.5302 1.51322 16.9227 1.32534 16.307 1.35963C15.081 1.43368 13.8577 1.53105 12.6317 1.62019L4.75462 2.19204C4.18962 2.23318 3.61777 2.27707 3.06648 2.34289C3.00479 2.35523 2.94675 2.38154 2.89683 2.41982C2.8469 2.4581 2.80642 2.50731 2.77849 2.56368C2.75518 2.63088 2.86626 2.78173 2.95266 2.85167C3.56977 3.34947 4.19785 3.83905 4.82045 4.32999C5.15643 4.60975 5.58567 4.75512 6.02176 4.73729C6.23432 4.72769 6.44688 4.73729 6.65807 4.71809L12.3739 4.36702L19.9685 3.91996C20.1495 3.89893 20.3301 3.87927 20.5102 3.86099Z" fill="#202020"/>
<path d="M17.0873 15.6862V9.29569C16.7417 9.25455 16.4112 9.20655 16.0779 9.18186C15.8956 9.16815 15.853 9.08587 15.8722 8.92542C15.8898 8.75137 15.9662 8.58854 16.0889 8.46385C16.2116 8.33916 16.3732 8.2601 16.5469 8.23974C17.6481 8.15746 18.7494 8.10123 19.8451 8.03541C20.0083 8.57984 19.8451 8.84725 19.324 8.9501C18.7494 9.06941 18.7494 9.06941 18.7494 9.65224V19.0392C18.7494 19.2572 18.6918 19.3903 18.4861 19.4547C18.1236 19.5907 17.7542 19.7075 17.3794 19.8044C16.7773 19.9306 16.2439 19.7633 15.886 19.2435C15.3876 18.5254 14.9007 17.7994 14.4255 17.0658C13.3229 15.3598 12.234 13.647 11.1383 11.9369C11.1164 11.9013 11.0862 11.867 11.0245 11.782C11.0108 11.8999 10.9984 11.9671 10.9984 12.037V18.4276C10.9984 18.6154 11.0588 18.6922 11.2398 18.7265C11.6457 18.8061 12.0503 18.9034 12.4466 18.9926C12.4396 19.1915 12.3607 19.3812 12.2245 19.5265C12.0884 19.6717 11.9042 19.7627 11.706 19.7825C11.3736 19.8274 11.0389 19.8549 10.7036 19.8648C9.89174 19.9141 9.07989 19.9525 8.26942 20.0101C8.03217 20.0266 7.98418 19.9278 8.02532 19.7345C8.03795 19.6186 8.08631 19.5094 8.1637 19.4222C8.2411 19.335 8.3437 19.274 8.4573 19.2476C8.71237 19.1859 8.9647 19.105 9.21703 19.0337V9.85932L8.08017 9.75783C8.04221 9.63948 8.03194 9.51398 8.05014 9.39102C8.06834 9.26807 8.11453 9.15093 8.18515 9.04864C8.25577 8.94635 8.34893 8.86165 8.45746 8.80105C8.56599 8.74046 8.68698 8.7056 8.81111 8.69915C9.80534 8.61961 10.8064 8.58944 11.7979 8.47698C12.2217 8.43036 12.4192 8.58669 12.6317 8.91445C14.0346 11.0757 15.4567 13.2287 16.8733 15.3832L17.0873 15.6862Z" fill="#202020"/>
<path fill-rule="evenodd" clip-rule="evenodd" d="M22.2203 6.34589C22.2203 5.67118 21.983 5.43805 21.3289 5.47645L15.6377 5.80009L8.65751 6.20876C7.83744 6.25538 7.01737 6.30567 6.19729 6.35961C5.76257 6.38978 5.5651 6.58177 5.50064 7.00826C5.48419 7.13168 5.47733 7.2551 5.48007 7.37853V20.9001C5.48007 21.952 5.75983 22.2153 6.81578 22.1536C7.87172 22.0918 8.9263 22.0233 9.99322 21.9616L21.2919 21.3129C21.898 21.2786 22.1736 21.0112 22.2216 20.4092C22.2299 20.3036 22.2216 20.198 22.2216 20.0855L22.2203 6.34589ZM17.0873 9.29569V15.6862L16.8733 15.3832C15.4567 13.2287 14.0346 11.0757 12.6317 8.91445C12.4192 8.58669 12.2217 8.43036 11.7979 8.47698C10.8064 8.58944 9.80534 8.61961 8.81111 8.69915C8.68698 8.7056 8.56599 8.74046 8.45746 8.80105C8.34893 8.86165 8.25577 8.94635 8.18515 9.04864C8.11453 9.15093 8.06834 9.26807 8.05014 9.39102C8.03194 9.51398 8.04221 9.63948 8.08017 9.75783L9.21703 9.85932V19.0337C8.9647 19.105 8.71237 19.1859 8.4573 19.2476C8.3437 19.274 8.2411 19.335 8.1637 19.4222C8.08631 19.5094 8.03795 19.6186 8.02532 19.7345C7.98418 19.9278 8.03217 20.0266 8.26942 20.0101C9.07989 19.9525 9.89174 19.9141 10.7036 19.8648C11.0389 19.8549 11.3736 19.8274 11.706 19.7825C11.9042 19.7627 12.0884 19.6717 12.2245 19.5265C12.3607 19.3812 12.4396 19.1915 12.4466 18.9926C12.0503 18.9034 11.6457 18.8061 11.2398 18.7265C11.0588 18.6922 10.9984 18.6154 10.9984 18.4276V12.037C10.9984 11.9671 11.0108 11.8999 11.0245 11.782C11.0862 11.867 11.1164 11.9013 11.1383 11.9369C12.234 13.647 13.3229 15.3598 14.4255 17.0658C14.9007 17.7994 15.3876 18.5254 15.886 19.2435C16.2439 19.7633 16.7773 19.9306 17.3794 19.8044C17.7542 19.7075 18.1236 19.5907 18.4861 19.4547C18.6918 19.3903 18.7494 19.2572 18.7494 19.0392V9.65224C18.7494 9.06941 18.7494 9.06941 19.324 8.9501C19.8451 8.84725 20.0083 8.57984 19.8451 8.03541C18.7494 8.10123 17.6481 8.15746 16.5469 8.23974C16.3732 8.2601 16.2116 8.33916 16.0889 8.46385C15.9662 8.58854 15.8898 8.75137 15.8722 8.92542C15.853 9.08587 15.8956 9.16815 16.0779 9.18186C16.4112 9.20655 16.7417 9.25455 17.0873 9.29569Z" fill="white"/>
<path d="M20.5102 3.86099L20.5472 3.79105C20.4644 3.68933 20.3726 3.59524 20.2729 3.50992C19.5242 2.96275 18.7672 2.42655 18.0198 1.8876C17.5302 1.51322 16.9227 1.32534 16.307 1.35963C15.081 1.43368 13.8577 1.53105 12.6317 1.62019L4.75462 2.19204C4.18962 2.23318 3.61777 2.27707 3.06648 2.34289C3.00479 2.35523 2.94675 2.38154 2.89683 2.41982C2.8469 2.4581 2.80642 2.50731 2.77849 2.56368C2.75518 2.63088 2.86626 2.78173 2.95266 2.85167C3.56977 3.34947 4.19785 3.83905 4.82045 4.32999C5.15643 4.60975 5.58567 4.75512 6.02176 4.73729C6.23432 4.72769 6.44688 4.73729 6.65807 4.71809L12.3739 4.36702L19.9685 3.91996C20.1495 3.89893 20.3301 3.87927 20.5102 3.86099Z" fill="white"/>
</g>
<defs>
<clipPath id="clip0_3012_2502">
<rect width="24" height="24" fill="white" transform="translate(0.25)"/>
</clipPath>
</defs>
</svg>
