<svg width="25" height="24" viewBox="0 0 25 24" fill="none" xmlns="http://www.w3.org/2000/svg">
<path d="M17.7599 1.62744H6.73909C4.05381 1.62744 1.87695 3.80429 1.87695 6.48958V17.5104C1.87695 20.1957 4.05381 22.3726 6.73909 22.3726H17.7599C20.4452 22.3726 22.6221 20.1957 22.6221 17.5104V6.48958C22.6221 3.80429 20.4452 1.62744 17.7599 1.62744Z" fill="#001E36"/>
<path d="M6.5446 16.055V7.16055C6.5446 7.10002 6.57054 7.0655 6.63107 7.0655C6.77799 7.0655 6.91631 7.0655 7.11509 7.05683C7.32255 7.04816 7.53867 7.04816 7.77205 7.03957C8.00543 7.0309 8.25608 7.0309 8.52406 7.02223C8.79197 7.01364 9.05128 7.01364 9.31059 7.01364C10.0194 7.01364 10.6072 7.10002 11.0913 7.28154C11.5252 7.42893 11.9208 7.67106 12.2495 7.99036C12.528 8.26985 12.7432 8.60589 12.8805 8.97575C13.0102 9.33879 13.0793 9.7105 13.0793 10.0995C13.0793 10.8428 12.9064 11.4565 12.5607 11.9406C12.2149 12.4246 11.7309 12.7877 11.1691 12.9951C10.5812 13.2112 9.93295 13.289 9.22421 13.289C9.01676 13.289 8.87843 13.289 8.79197 13.2804C8.7055 13.2717 8.58451 13.2717 8.42034 13.2717V16.0464C8.42893 16.1069 8.38573 16.1587 8.3252 16.1674H6.64833C6.57921 16.1674 6.5446 16.1328 6.5446 16.055ZM8.42893 8.7337V11.638C8.54999 11.6467 8.66231 11.6554 8.76603 11.6554H9.22421C9.56132 11.6554 9.89843 11.6035 10.2182 11.4998C10.4948 11.422 10.7368 11.2577 10.927 11.0416C11.1085 10.8256 11.195 10.5316 11.195 10.1513C11.2031 9.8812 11.1341 9.61435 10.9961 9.38198C10.8492 9.15727 10.6418 8.98442 10.3911 8.88929C10.0713 8.75963 9.7255 8.70777 9.37113 8.71644C9.14642 8.71644 8.94755 8.71644 8.78337 8.72511C8.61045 8.71644 8.48946 8.72511 8.42893 8.7337ZM18.473 11.1108C18.2137 10.9725 17.9372 10.8774 17.6432 10.8169C17.3234 10.7478 17.0036 10.7045 16.6751 10.7045C16.5023 10.6959 16.3207 10.7218 16.1565 10.765C16.0442 10.7909 15.949 10.8515 15.8886 10.9379C15.8453 11.0071 15.8194 11.0935 15.8194 11.1712C15.8194 11.249 15.854 11.3268 15.9058 11.396C15.9836 11.4911 16.0874 11.5689 16.1998 11.6294C16.4002 11.7332 16.6049 11.8284 16.8134 11.9147C17.2802 12.0703 17.7297 12.2863 18.1446 12.5456C18.4299 12.7271 18.6632 12.9692 18.8274 13.2631C18.9657 13.5397 19.0349 13.8422 19.0263 14.1534C19.0349 14.5597 18.9139 14.9659 18.6892 15.303C18.4481 15.6481 18.1116 15.9154 17.721 16.0723C17.2975 16.2538 16.7788 16.3489 16.1565 16.3489C15.7589 16.3489 15.37 16.3143 14.981 16.2365C14.6761 16.1839 14.3796 16.0909 14.0993 15.96C14.0388 15.9254 13.9956 15.8648 14.0042 15.7957V14.2917C14.0042 14.2658 14.0128 14.2312 14.0388 14.2139C14.0647 14.1966 14.0906 14.2052 14.1166 14.2226C14.4537 14.4213 14.808 14.5597 15.1884 14.6461C15.5169 14.7325 15.8626 14.7757 16.2083 14.7757C16.5369 14.7757 16.7702 14.7325 16.9258 14.6547C17.0641 14.5942 17.1592 14.4473 17.1592 14.2917C17.1592 14.1707 17.09 14.0583 16.9518 13.9459C16.8134 13.8336 16.5282 13.7039 16.1046 13.5397C15.6702 13.3865 15.2575 13.1773 14.8773 12.9173C14.6064 12.7243 14.3819 12.4733 14.2203 12.1826C14.082 11.906 14.0128 11.6035 14.0215 11.3009C14.0215 10.9293 14.1252 10.5748 14.3154 10.2551C14.5315 9.90928 14.8513 9.63271 15.223 9.45978C15.6293 9.25233 16.1392 9.15727 16.7529 9.15727C17.1074 9.15727 17.4704 9.1832 17.8248 9.23506C18.0841 9.26967 18.3347 9.33879 18.5681 9.43385C18.6027 9.44252 18.6373 9.47712 18.6546 9.51164C18.6632 9.54624 18.6718 9.58084 18.6718 9.61537V11.0243C18.6718 11.0589 18.6546 11.0935 18.6286 11.1108C18.5508 11.1281 18.5077 11.1281 18.473 11.1108Z" fill="#31A8FF"/>
</svg>
