<svg width="25" height="24" viewBox="0 0 25 24" fill="none" xmlns="http://www.w3.org/2000/svg">
<path d="M9.00562 2.26538H12.2505V8.75513H9.00562C8.14502 8.75513 7.31968 8.41326 6.71114 7.80473C6.10261 7.19619 5.76074 6.37085 5.76074 5.51025C5.76074 4.64966 6.10261 3.82431 6.71114 3.21578C7.31968 2.60725 8.14502 2.26538 9.00562 2.26538Z" fill="#F4511E"/>
<path d="M15.4954 8.75513H12.2505V2.26538H15.4954C16.356 2.26538 17.1813 2.60725 17.7898 3.21578C18.3984 3.82431 18.7402 4.64966 18.7402 5.51025C18.7402 6.37085 18.3984 7.19619 17.7898 7.80473C17.1813 8.41326 16.356 8.75513 15.4954 8.75513Z" fill="#FF8A65"/>
<path d="M12.2505 12C12.2505 13.7921 13.7033 15.2449 15.4954 15.2449C17.2875 15.2449 18.7402 13.7921 18.7402 12C18.7402 10.2079 17.2875 8.75513 15.4954 8.75513C13.7033 8.75513 12.2505 10.2079 12.2505 12Z" fill="#29B6F6"/>
<path d="M9.00562 8.75513H12.2505V15.2449H9.00562C8.14502 15.2449 7.31968 14.903 6.71114 14.2945C6.10261 13.6859 5.76074 12.8606 5.76074 12C5.76074 11.1394 6.10261 10.3141 6.71114 9.70553C7.31968 9.097 8.14502 8.75513 9.00562 8.75513Z" fill="#7C4DFF"/>
<path d="M9.00562 15.2449H12.2505V18.4897C12.2505 19.3503 11.9086 20.1757 11.3001 20.7842C10.6916 21.3927 9.86621 21.7346 9.00562 21.7346C8.14502 21.7346 7.31968 21.3927 6.71114 20.7842C6.10261 20.1757 5.76074 19.3503 5.76074 18.4897C5.76074 17.6292 6.10261 16.8038 6.71114 16.1953C7.31968 15.5867 8.14502 15.2449 9.00562 15.2449Z" fill="#00E676"/>
</svg>
