<svg width="36" height="36" viewBox="0 0 36 36" fill="none" xmlns="http://www.w3.org/2000/svg">
<rect width="36" height="36" rx="7.2" fill="#11637C"/>
<path d="M11.1326 27.3774C10.5991 27.3774 10.0662 27.2815 9.5453 27.0667C8.36361 26.5801 7.488 25.5852 7.01268 24.19C6.58066 22.922 6.55488 21.5816 6.60942 20.6809C6.68974 19.3531 7.02822 17.9463 7.58816 16.6132C8.1838 15.1955 8.99859 13.9048 10.0104 12.777C11.1187 11.5414 12.4151 10.5594 13.8645 9.85761C15.4637 9.08315 17.2189 8.66799 19.0815 8.6227C19.6252 8.60948 20.0777 9.04018 20.0909 9.58458C20.1042 10.129 19.6735 10.5808 19.1291 10.5937C12.2667 10.7593 8.8277 16.6615 8.57747 20.7996C8.52591 21.6547 8.49682 24.5026 10.296 25.2434C10.9865 25.5277 11.8125 25.4384 12.7512 24.9776C13.5588 24.5813 14.4344 23.9004 15.1533 23.1097C15.5195 22.7068 16.1429 22.6774 16.5459 23.0436C16.9488 23.4099 16.9782 24.0333 16.612 24.4362C15.2078 25.9802 13.1664 27.377 11.1319 27.377L11.1326 27.3774Z" fill="#F5F9FA"/>
<path d="M12.1351 21.6021C12.821 21.6021 13.377 21.0461 13.377 20.3603C13.377 19.6744 12.821 19.1184 12.1351 19.1184C11.4493 19.1184 10.8933 19.6744 10.8933 20.3603C10.8933 21.0461 11.4493 21.6021 12.1351 21.6021Z" fill="#F5F9FA"/>
<path d="M23.8459 17.9691C24.5318 17.9691 25.0878 17.4131 25.0878 16.7273C25.0878 16.0414 24.5318 15.4854 23.8459 15.4854C23.1601 15.4854 22.6041 16.0414 22.6041 16.7273C22.6041 17.4131 23.1601 17.9691 23.8459 17.9691Z" fill="#F5F9FA"/>
<path d="M22.6457 23.9344C21.8551 23.9344 21.1222 23.7421 20.5021 23.3689C19.7743 22.9306 19.1912 22.2341 18.816 21.3549C18.3731 20.316 18.2035 19.0404 18.3123 17.5636C18.5463 14.3837 19.7115 11.3427 21.5926 9.00051C21.9334 8.5761 22.5542 8.50833 22.9786 8.84912C23.403 9.18991 23.4707 9.81067 23.13 10.2351C21.4964 12.2689 20.484 14.9229 20.2787 17.7083C20.1934 18.8682 20.3114 19.8351 20.6297 20.5814C20.838 21.07 21.154 21.46 21.5192 21.6801C21.9 21.9095 22.415 22.0037 22.97 21.9459C24.4571 21.7902 26.2258 20.7411 27.701 19.1389C28.0699 18.7383 28.6937 18.7129 29.0939 19.0814C29.4946 19.4503 29.52 20.074 29.1515 20.4743C28.2914 21.4084 25.9872 23.6125 23.1752 23.9063C22.9964 23.9252 22.8196 23.9344 22.6457 23.9344Z" fill="#F5F9FA"/>
</svg>
