<svg width="129" height="37" viewBox="0 0 129 37" fill="none" xmlns="http://www.w3.org/2000/svg">
<path d="M128.285 32.1902C128.285 34.0772 126.649 35.6057 124.626 35.6057H4.87688C2.85448 35.6057 1.21289 34.0772 1.21289 32.1902V4.95311C1.21289 3.06703 2.85448 1.5332 4.87688 1.5332H124.625C126.649 1.5332 128.284 3.06703 128.284 4.95311L128.285 32.1902Z" fill="#343434"/>
<path d="M124.241 1.57409C126.444 1.57409 128.237 3.24162 128.237 5.29089V31.8474C128.237 33.8966 126.444 35.5642 124.241 35.5642H5.25926C3.05572 35.5642 1.26267 33.8966 1.26267 31.8474V5.29089C1.26267 3.24162 3.05572 1.57409 5.25926 1.57409H124.241ZM124.241 0.864813H5.25926C2.64286 0.864813 0.5 2.85765 0.5 5.29089V31.8474C0.5 34.2806 2.64286 36.2734 5.25926 36.2734H124.241C126.857 36.2734 129 34.2806 129 31.8474V5.29089C129 2.85765 126.857 0.864813 124.241 0.864813Z" fill="#343434"/>
<path d="M29.1752 18.3779C29.1476 15.5248 31.6872 14.1368 31.8033 14.0722C30.365 12.1221 28.1358 11.8556 27.3524 11.8344C25.4801 11.6511 23.664 12.8763 22.7102 12.8763C21.7375 12.8763 20.2687 11.8521 18.6858 11.8822C16.6489 11.9114 14.7432 13.0082 13.6981 14.7113C11.5412 18.184 13.1498 23.2873 15.2163 26.0943C16.25 27.469 17.4579 29.004 19.039 28.95C20.5857 28.8907 21.1635 28.0329 23.0301 28.0329C24.8795 28.0329 25.4221 28.95 27.0345 28.9155C28.6945 28.8907 29.7397 27.5346 30.7372 26.1474C31.9318 24.5717 32.4115 23.02 32.4306 22.9403C32.3915 22.9279 29.2066 21.7975 29.1752 18.3779Z" fill="white"/>
<path d="M26.1293 9.98781C26.9612 9.02027 27.5304 7.70395 27.3724 6.36816C26.1683 6.41774 24.6625 7.14273 23.7954 8.08902C23.0282 8.9229 22.3428 10.2897 22.5199 11.575C23.8725 11.6688 25.2612 10.9403 26.1293 9.98781Z" fill="white"/>
<path d="M51.5612 28.7531H49.3996L48.2155 25.2928H44.0997L42.9717 28.7531H40.8672L44.9449 16.9727H47.4635L51.5612 28.7531ZM47.8585 23.841L46.7877 20.7649C46.6744 20.4507 46.4622 19.7106 46.149 18.5457H46.1109C45.9862 19.0467 45.7854 19.7868 45.5094 20.7649L44.4576 23.841H47.8585Z" fill="white"/>
<path d="M62.048 24.4012C62.048 25.8459 61.6282 26.9878 60.7887 27.8261C60.0368 28.5723 59.103 28.945 57.9884 28.945C56.7852 28.945 55.9209 28.5431 55.3946 27.7393H55.3565V32.2141H53.3271V23.0548C53.3271 22.1465 53.3014 21.2144 53.252 20.2584H55.0367L55.1499 21.6048H55.188C55.8648 20.5903 56.8918 20.084 58.2701 20.084C59.3476 20.084 60.2471 20.4797 60.9667 21.2719C61.6882 22.0651 62.048 23.1079 62.048 24.4012ZM59.9806 24.4702C59.9806 23.6434 59.7807 22.9618 59.379 22.4254C58.9402 21.8659 58.351 21.5862 57.6124 21.5862C57.1117 21.5862 56.6567 21.742 56.2503 22.0492C55.8429 22.359 55.5764 22.7635 55.4517 23.2646C55.3889 23.4983 55.3574 23.6895 55.3574 23.84V25.2563C55.3574 25.8742 55.5611 26.3956 55.9685 26.8214C56.3759 27.2471 56.9052 27.4596 57.5562 27.4596C58.3206 27.4596 58.9155 27.1852 59.3409 26.6381C59.7674 26.0902 59.9806 25.3678 59.9806 24.4702Z" fill="white"/>
<path d="M72.5529 24.4012C72.5529 25.8459 72.1332 26.9878 71.2927 27.8261C70.5417 28.5723 69.6079 28.945 68.4933 28.945C67.2901 28.945 66.4259 28.5431 65.9004 27.7393H65.8624V32.2141H63.833V23.0548C63.833 22.1465 63.8073 21.2144 63.7578 20.2584H65.5425L65.6558 21.6048H65.6939C66.3697 20.5903 67.3967 20.084 68.776 20.084C69.8525 20.084 70.752 20.4797 71.4735 21.2719C72.1922 22.0651 72.5529 23.1079 72.5529 24.4012ZM70.4855 24.4702C70.4855 23.6434 70.2847 22.9618 69.883 22.4254C69.4442 21.8659 68.8569 21.5862 68.1173 21.5862C67.6157 21.5862 67.1616 21.742 66.7542 22.0492C66.3469 22.359 66.0813 22.7635 65.9566 23.2646C65.8947 23.4983 65.8624 23.6895 65.8624 23.84V25.2563C65.8624 25.8742 66.0661 26.3956 66.4715 26.8214C66.8789 27.2463 67.4082 27.4596 68.0611 27.4596C68.8255 27.4596 69.4204 27.1852 69.8459 26.6381C70.2723 26.0902 70.4855 25.3678 70.4855 24.4702Z" fill="white"/>
<path d="M84.2999 25.4492C84.2999 26.4513 83.9258 27.2666 83.1748 27.896C82.3496 28.5838 81.2007 28.9273 79.7243 28.9273C78.3613 28.9273 77.2686 28.6829 76.4414 28.1934L76.9116 26.6204C77.8026 27.1214 78.7801 27.3728 79.8452 27.3728C80.6096 27.3728 81.2045 27.2117 81.6319 26.8913C82.0573 26.5708 82.2696 26.1406 82.2696 25.6042C82.2696 25.1261 82.0945 24.7234 81.7432 24.3967C81.3939 24.0701 80.8104 23.7665 79.9956 23.4858C77.7778 22.7166 76.6699 21.5897 76.6699 20.1079C76.6699 19.1394 77.0582 18.3454 77.8359 17.7275C78.6107 17.1087 79.6444 16.7998 80.937 16.7998C82.0897 16.7998 83.0473 16.9866 83.8116 17.3593L83.3043 18.8978C82.5904 18.5366 81.7832 18.356 80.8799 18.356C80.166 18.356 79.6082 18.5198 79.2084 18.8455C78.8705 19.1368 78.7011 19.4917 78.7011 19.9122C78.7011 20.3778 78.8943 20.7629 79.2827 21.0657C79.6206 21.3454 80.2345 21.6481 81.1255 21.9748C82.2153 22.3829 83.0159 22.86 83.5308 23.4071C84.0439 23.9523 84.2999 24.6348 84.2999 25.4492Z" fill="white"/>
<path d="M91.0079 21.6745H88.7711V25.7987C88.7711 26.8477 89.1651 27.3717 89.9552 27.3717C90.3178 27.3717 90.6186 27.3425 90.8566 27.2841L90.9127 28.7173C90.513 28.8563 89.9866 28.9262 89.3346 28.9262C88.5331 28.9262 87.9068 28.6987 87.4547 28.2446C87.0044 27.7896 86.7779 27.0265 86.7779 25.9545V21.6727H85.4453V20.2564H86.7779V18.7011L88.7711 18.1416V20.2564H91.0079V21.6745Z" fill="white"/>
<path d="M101.101 24.4358C101.101 25.7415 100.699 26.8135 99.8976 27.6518C99.0571 28.5149 97.9416 28.9451 96.5509 28.9451C95.2107 28.9451 94.1437 28.5317 93.3479 27.7049C92.5522 26.8781 92.1543 25.8344 92.1543 24.5765C92.1543 23.2602 92.5636 22.182 93.385 21.3437C94.2046 20.5046 95.3106 20.085 96.7013 20.085C98.0415 20.085 99.1199 20.4984 99.9338 21.326C100.712 22.1289 101.101 23.1655 101.101 24.4358ZM98.9952 24.4969C98.9952 23.7135 98.8154 23.0416 98.4508 22.4812C98.0253 21.8032 97.4171 21.465 96.6289 21.465C95.8132 21.465 95.1936 21.8041 94.7681 22.4812C94.4035 23.0425 94.2236 23.725 94.2236 24.5323C94.2236 25.3157 94.4035 25.9876 94.7681 26.547C95.2069 27.2251 95.8199 27.5633 96.6109 27.5633C97.3857 27.5633 97.9939 27.218 98.4327 26.5293C98.8068 25.9584 98.9952 25.2794 98.9952 24.4969Z" fill="white"/>
<path d="M107.699 21.9182C107.498 21.8836 107.284 21.8659 107.06 21.8659C106.346 21.8659 105.794 22.1164 105.405 22.6184C105.067 23.061 104.898 23.6204 104.898 24.2958V28.7529H102.87L102.889 22.9335C102.889 21.9544 102.863 21.063 102.812 20.2593H104.58L104.654 21.8845H104.711C104.925 21.3259 105.263 20.8763 105.725 20.539C106.177 20.2354 106.666 20.084 107.192 20.084C107.38 20.084 107.549 20.0964 107.699 20.1185V21.9182Z" fill="white"/>
<path d="M116.774 24.1031C116.774 24.4412 116.75 24.7263 116.699 24.9591H110.611C110.635 25.7983 110.929 26.44 111.495 26.8827C112.008 27.2783 112.671 27.4766 113.486 27.4766C114.387 27.4766 115.21 27.343 115.949 27.0747L116.267 28.3849C115.403 28.7354 114.383 28.9098 113.205 28.9098C111.789 28.9098 110.677 28.5221 109.868 27.7475C109.061 26.9729 108.656 25.9328 108.656 24.628C108.656 23.3471 109.032 22.2804 109.785 21.4297C110.573 20.5215 111.638 20.0674 112.979 20.0674C114.295 20.0674 115.292 20.5215 115.968 21.4297C116.504 22.1512 116.774 23.0435 116.774 24.1031ZM114.839 23.6136C114.852 23.0541 114.72 22.5708 114.444 22.1627C114.093 21.6378 113.554 21.3757 112.827 21.3757C112.164 21.3757 111.624 21.6316 111.212 22.145C110.874 22.5531 110.673 23.0426 110.611 23.6127H114.839V23.6136Z" fill="white"/>
<path d="M47.1895 9.72572C47.1895 10.7676 46.8535 11.5519 46.1824 12.0786C45.5609 12.5646 44.6775 12.808 43.5334 12.808C42.9661 12.808 42.4807 12.785 42.0742 12.739V7.04617C42.6044 6.9665 43.1755 6.92578 43.7923 6.92578C44.8822 6.92578 45.7036 7.1462 46.2576 7.58704C46.8782 8.08541 47.1895 8.79801 47.1895 9.72572ZM46.1377 9.75139C46.1377 9.07597 45.9454 8.55812 45.5609 8.19695C45.1763 7.83667 44.6147 7.65608 43.8751 7.65608C43.561 7.65608 43.2935 7.67556 43.0718 7.71628V12.0441C43.1945 12.0618 43.4192 12.0698 43.7457 12.0698C44.5091 12.0698 45.0983 11.8724 45.5133 11.4776C45.9283 11.0828 46.1377 10.5074 46.1377 9.75139Z" fill="white"/>
<path d="M52.7678 10.6359C52.7678 11.2777 52.5707 11.8035 52.1766 12.216C51.7635 12.6401 51.2162 12.8516 50.5328 12.8516C49.8741 12.8516 49.3496 12.6489 48.9584 12.2417C48.5682 11.8354 48.373 11.3229 48.373 10.705C48.373 10.0588 48.5739 9.52853 48.9775 9.1169C49.3811 8.70528 49.9236 8.49902 50.607 8.49902C51.2657 8.49902 51.795 8.70174 52.1957 9.10805C52.5764 9.50286 52.7678 10.0127 52.7678 10.6359ZM51.7331 10.666C51.7331 10.281 51.6436 9.95078 51.4656 9.67547C51.2562 9.34263 50.9583 9.17621 50.5709 9.17621C50.1701 9.17621 49.8656 9.34263 49.6561 9.67547C49.4772 9.95078 49.3887 10.2863 49.3887 10.6828C49.3887 11.0679 49.4781 11.3981 49.6561 11.6734C49.8722 12.0062 50.173 12.1727 50.5614 12.1727C50.9421 12.1727 51.241 12.0036 51.4561 11.6646C51.6408 11.3839 51.7331 11.0511 51.7331 10.666Z" fill="white"/>
<path d="M60.2453 8.58398L58.8413 12.7569H57.9275L57.3459 10.9449C57.1984 10.4925 57.0785 10.0428 56.9852 9.59667H56.9671C56.8805 10.0552 56.7606 10.504 56.6064 10.9449L55.9886 12.7569H55.0644L53.7441 8.58398H54.7693L55.2766 10.5678C55.3994 11.0369 55.5003 11.484 55.5812 11.9071H55.5993C55.6735 11.5583 55.7963 11.1139 55.9696 10.5766L56.6064 8.58487H57.4192L58.0294 10.5341C58.1769 11.0095 58.2968 11.4671 58.3892 11.908H58.4168C58.4844 11.4786 58.5862 11.021 58.7214 10.5341L59.2658 8.58487H60.2453V8.58398Z" fill="white"/>
<path d="M65.4155 12.7566H64.4179V10.3666C64.4179 9.63006 64.1171 9.26181 63.5137 9.26181C63.2176 9.26181 62.9787 9.36272 62.7931 9.56543C62.6094 9.76815 62.5161 10.0072 62.5161 10.2807V12.7558H61.5186V9.77612C61.5186 9.40964 61.5062 9.01217 61.4824 8.58196H62.3591L62.4057 9.23436H62.4333C62.5494 9.03165 62.7227 8.86434 62.9502 8.73068C63.2205 8.57488 63.5232 8.49609 63.8544 8.49609C64.2732 8.49609 64.6216 8.62179 64.8986 8.87408C65.2432 9.18302 65.4155 9.64422 65.4155 10.2568V12.7566Z" fill="white"/>
<path d="M68.1665 12.7566H67.1699V6.66895H68.1665V12.7566Z" fill="white"/>
<path d="M74.0373 10.6359C74.0373 11.2777 73.8402 11.8035 73.4462 12.216C73.0331 12.6401 72.4848 12.8516 71.8023 12.8516C71.1427 12.8516 70.6182 12.6489 70.228 12.2417C69.8377 11.8354 69.6426 11.3229 69.6426 10.705C69.6426 10.0588 69.8434 9.52853 70.247 9.1169C70.6506 8.70528 71.1931 8.49902 71.8756 8.49902C72.5353 8.49902 73.0635 8.70174 73.4652 9.10805C73.846 9.50286 74.0373 10.0127 74.0373 10.6359ZM73.0017 10.666C73.0017 10.281 72.9122 9.95078 72.7342 9.67547C72.5257 9.34263 72.2269 9.17621 71.8404 9.17621C71.4387 9.17621 71.1341 9.34263 70.9257 9.67547C70.7467 9.95078 70.6582 10.2863 70.6582 10.6828C70.6582 11.0679 70.7477 11.3981 70.9257 11.6734C71.1417 12.0062 71.4425 12.1727 71.8309 12.1727C72.2116 12.1727 72.5096 12.0036 72.7247 11.6646C72.9103 11.3839 73.0017 11.0511 73.0017 10.666Z" fill="white"/>
<path d="M78.8692 12.7569H77.9735L77.8993 12.2762H77.8717C77.5652 12.6595 77.1283 12.8516 76.561 12.8516C76.1374 12.8516 75.7947 12.725 75.5368 12.4736C75.3026 12.2453 75.1855 11.9611 75.1855 11.6238C75.1855 11.1139 75.414 10.7253 75.8737 10.4562C76.3325 10.1871 76.9779 10.0552 77.8089 10.0614V9.98353C77.8089 9.43381 77.4985 9.15939 76.877 9.15939C76.4344 9.15939 76.0441 9.26296 75.7072 9.46833L75.5044 8.85931C75.9213 8.61941 76.4363 8.49902 77.0436 8.49902C78.2162 8.49902 78.8045 9.07441 78.8045 10.2252V11.7619C78.8045 12.1789 78.8264 12.5108 78.8692 12.7569ZM77.8336 11.3229V10.6793C76.7333 10.6616 76.1831 10.9422 76.1831 11.5203C76.1831 11.738 76.2459 11.9009 76.3744 12.0098C76.5029 12.1187 76.6666 12.1727 76.8618 12.1727C77.0807 12.1727 77.2853 12.108 77.4719 11.9797C77.6594 11.8504 77.7746 11.6867 77.8174 11.4857C77.8279 11.4406 77.8336 11.3857 77.8336 11.3229Z" fill="white"/>
<path d="M84.5353 12.7566H83.6501L83.6034 12.0865H83.5758C83.2931 12.5963 82.8115 12.8513 82.1347 12.8513C81.5941 12.8513 81.1438 12.6539 80.7869 12.2591C80.4299 11.8643 80.252 11.3517 80.252 10.7223C80.252 10.0469 80.4452 9.49986 80.8335 9.08204C81.2095 8.69255 81.6702 8.4978 82.2185 8.4978C82.821 8.4978 83.2427 8.68635 83.4825 9.06434H83.5016V6.66895H84.5001V11.6323C84.5001 12.0387 84.5115 12.4131 84.5353 12.7566ZM83.5016 10.9968V10.301C83.5016 10.1806 83.492 10.0832 83.474 10.0089C83.4178 9.78579 83.2969 9.59812 83.1132 9.44675C82.9276 9.29538 82.7039 9.21925 82.446 9.21925C82.0738 9.21925 81.7825 9.35646 81.5684 9.63176C81.3561 9.90706 81.2485 10.2585 81.2485 10.6878C81.2485 11.1003 81.3504 11.4349 81.555 11.6925C81.7711 11.967 82.0624 12.1042 82.4269 12.1042C82.7544 12.1042 83.0161 11.99 83.2151 11.7607C83.4073 11.5491 83.5016 11.2942 83.5016 10.9968Z" fill="white"/>
<path d="M93.0666 10.6359C93.0666 11.2777 92.8695 11.8035 92.4755 12.216C92.0624 12.6401 91.516 12.8516 90.8316 12.8516C90.1739 12.8516 89.6494 12.6489 89.2573 12.2417C88.867 11.8354 88.6719 11.3229 88.6719 10.705C88.6719 10.0588 88.8727 9.52853 89.2763 9.1169C89.6799 8.70528 90.2224 8.49902 90.9068 8.49902C91.5645 8.49902 92.0947 8.70174 92.4945 9.10805C92.8753 9.50286 93.0666 10.0127 93.0666 10.6359ZM92.0329 10.666C92.0329 10.281 91.9434 9.95078 91.7654 9.67547C91.555 9.34263 91.2581 9.17621 90.8697 9.17621C90.4699 9.17621 90.1653 9.34263 89.955 9.67547C89.776 9.95078 89.6875 10.2863 89.6875 10.6828C89.6875 11.0679 89.777 11.3981 89.955 11.6734C90.171 12.0062 90.4718 12.1727 90.8602 12.1727C91.2409 12.1727 91.5408 12.0036 91.7559 11.6646C91.9396 11.3839 92.0329 11.0511 92.0329 10.666Z" fill="white"/>
<path d="M98.4301 12.7566H97.4336V10.3666C97.4336 9.63006 97.1328 9.26181 96.5283 9.26181C96.2323 9.26181 95.9934 9.36272 95.8087 9.56543C95.6241 9.76815 95.5318 10.0072 95.5318 10.2807V12.7558H94.5333V9.77612C94.5333 9.40964 94.5218 9.01217 94.498 8.58196H95.3737L95.4204 9.23436H95.448C95.5651 9.03165 95.7383 8.86434 95.9648 8.73068C96.2361 8.57488 96.5379 8.49609 96.8701 8.49609C97.2879 8.49609 97.6363 8.62179 97.9133 8.87408C98.2588 9.18302 98.4301 9.64422 98.4301 10.2568V12.7566Z" fill="white"/>
<path d="M105.143 9.27906H104.044V11.3062C104.044 11.8214 104.24 12.079 104.626 12.079C104.805 12.079 104.953 12.0648 105.071 12.0356L105.096 12.7394C104.899 12.8084 104.64 12.8429 104.321 12.8429C103.927 12.8429 103.621 12.7314 103.399 12.5083C103.176 12.2853 103.066 11.9099 103.066 11.3832V9.27906H102.41V8.58416H103.066V7.81934L104.044 7.54492V8.58328H105.142V9.27906H105.143Z" fill="white"/>
<path d="M110.426 12.7566H109.428V10.3842C109.428 9.63619 109.127 9.26174 108.524 9.26174C108.062 9.26174 107.746 9.47862 107.573 9.91238C107.543 10.0036 107.526 10.1151 107.526 10.2461V12.7557H106.529V6.66895H107.526V9.18384H107.545C107.859 8.72619 108.309 8.4978 108.893 8.4978C109.306 8.4978 109.648 8.6235 109.919 8.87579C110.257 9.19004 110.426 9.65743 110.426 10.2753V12.7566Z" fill="white"/>
<path d="M115.872 10.4722C115.872 10.6387 115.859 10.7785 115.835 10.8927H112.843C112.857 11.3052 112.999 11.6195 113.276 11.8372C113.53 12.032 113.856 12.1294 114.256 12.1294C114.698 12.1294 115.102 12.0638 115.466 11.932L115.622 12.5764C115.196 12.7481 114.696 12.834 114.116 12.834C113.421 12.834 112.874 12.6437 112.478 12.263C112.08 11.8824 111.883 11.3716 111.883 10.7307C111.883 10.1013 112.067 9.57728 112.437 9.15946C112.823 8.71331 113.346 8.49023 114.005 8.49023C114.651 8.49023 115.141 8.71331 115.472 9.15946C115.74 9.51354 115.872 9.95172 115.872 10.4722ZM114.92 10.2323C114.928 9.95704 114.862 9.7198 114.727 9.51974C114.554 9.26214 114.29 9.1329 113.933 9.1329C113.608 9.1329 113.342 9.2586 113.139 9.51089C112.974 9.71183 112.876 9.95172 112.843 10.2323H114.92Z" fill="white"/>
</svg>
