<svg width="25" height="24" viewBox="0 0 25 24" fill="none" xmlns="http://www.w3.org/2000/svg">
<g clip-path="url(#clip0_3084_1385)">
<path d="M24.0638 13.2397V21.4596C24.0405 22.4155 23.577 22.9435 22.6197 23.023C21.5213 23.1135 20.4173 23.1711 19.3148 23.2369C17.0932 23.3741 14.8711 23.5085 12.6486 23.6401C10.6807 23.7567 8.71278 23.8595 6.74762 23.9925C5.87818 24.0488 5.19387 23.7745 4.71253 23.0285C4.5699 22.8077 4.38751 22.6088 4.22569 22.3977C3.40288 21.3362 2.58692 20.272 1.75999 19.2161C1.20422 18.5346 0.909141 17.6776 0.927572 16.7984C0.954999 12.1221 0.938543 7.44846 0.941285 2.7735C0.941285 2.59705 0.954999 2.42152 0.982426 2.2469C1.10859 1.56122 1.53371 1.1361 2.22762 1.07027C3.36311 0.963305 4.51642 0.889252 5.66151 0.802856L11.1332 0.399676C12.8858 0.27214 14.6384 0.150089 16.391 0.0115814C17.2695 -0.05965 18.1429 0.199536 18.8403 0.738402C20.3844 1.8588 21.9533 2.94218 23.5194 4.03515C23.7006 4.15145 23.8475 4.31413 23.9446 4.50632C24.0418 4.69851 24.0858 4.9132 24.072 5.12812C24.0569 7.83107 24.0638 10.5354 24.0638 13.2397ZM22.4703 6.34589C22.4703 5.67118 22.233 5.43805 21.5789 5.47645L15.8877 5.80009L8.90751 6.20876C8.08744 6.25538 7.26737 6.30567 6.44729 6.35961C6.01257 6.38978 5.8151 6.58177 5.75064 7.00826C5.73419 7.13168 5.72733 7.2551 5.73007 7.37853V20.9001C5.73007 21.952 6.00983 22.2153 7.06578 22.1536C8.12172 22.0918 9.1763 22.0233 10.2432 21.9616L21.5419 21.3129C22.148 21.2786 22.4236 21.0112 22.4716 20.4092C22.4799 20.3036 22.4716 20.198 22.4716 20.0855L22.4703 6.34589ZM20.7602 3.86099L20.7972 3.79105C20.7144 3.68933 20.6226 3.59524 20.5229 3.50992C19.7742 2.96275 19.0172 2.42655 18.2698 1.8876C17.7802 1.51322 17.1727 1.32534 16.557 1.35963C15.331 1.43368 14.1077 1.53105 12.8817 1.62019L5.00462 2.19204C4.43962 2.23318 3.86777 2.27707 3.31648 2.34289C3.25479 2.35523 3.19675 2.38154 3.14683 2.41982C3.0969 2.4581 3.05642 2.50731 3.02849 2.56368C3.00518 2.63088 3.11626 2.78173 3.20266 2.85167C3.81977 3.34947 4.44785 3.83905 5.07045 4.32999C5.40643 4.60975 5.83567 4.75512 6.27176 4.73729C6.48432 4.72769 6.69688 4.73729 6.90807 4.71809L12.6239 4.36702L20.2185 3.91996C20.3995 3.89893 20.5801 3.87927 20.7602 3.86099Z" fill="#202020"/>
<path d="M17.3373 15.6862V9.29569C16.9917 9.25455 16.6612 9.20655 16.3279 9.18186C16.1456 9.16815 16.103 9.08587 16.1222 8.92542C16.1398 8.75137 16.2162 8.58854 16.3389 8.46385C16.4616 8.33916 16.6232 8.2601 16.7969 8.23974C17.8981 8.15746 18.9994 8.10123 20.0951 8.03541C20.2583 8.57984 20.0951 8.84725 19.574 8.9501C18.9994 9.06941 18.9994 9.06941 18.9994 9.65224V19.0392C18.9994 19.2572 18.9418 19.3903 18.7361 19.4547C18.3736 19.5907 18.0042 19.7075 17.6294 19.8044C17.0273 19.9306 16.4939 19.7633 16.136 19.2435C15.6376 18.5254 15.1507 17.7994 14.6755 17.0658C13.5729 15.3598 12.484 13.647 11.3883 11.9369C11.3664 11.9013 11.3362 11.867 11.2745 11.782C11.2608 11.8999 11.2484 11.9671 11.2484 12.037V18.4276C11.2484 18.6154 11.3088 18.6922 11.4898 18.7265C11.8957 18.8061 12.3003 18.9034 12.6966 18.9926C12.6896 19.1915 12.6107 19.3812 12.4745 19.5265C12.3384 19.6717 12.1542 19.7627 11.956 19.7825C11.6236 19.8274 11.2889 19.8549 10.9536 19.8648C10.1417 19.9141 9.32989 19.9525 8.51942 20.0101C8.28217 20.0266 8.23418 19.9278 8.27532 19.7345C8.28795 19.6186 8.33631 19.5094 8.4137 19.4222C8.4911 19.335 8.5937 19.274 8.7073 19.2476C8.96237 19.1859 9.2147 19.105 9.46703 19.0337V9.85932L8.33017 9.75783C8.29221 9.63948 8.28194 9.51398 8.30014 9.39102C8.31834 9.26807 8.36453 9.15093 8.43515 9.04864C8.50577 8.94635 8.59893 8.86165 8.70746 8.80105C8.81599 8.74046 8.93698 8.7056 9.06111 8.69915C10.0553 8.61961 11.0564 8.58944 12.0479 8.47698C12.4717 8.43036 12.6692 8.58669 12.8817 8.91445C14.2846 11.0757 15.7067 13.2287 17.1233 15.3832L17.3373 15.6862Z" fill="#202020"/>
<path fill-rule="evenodd" clip-rule="evenodd" d="M22.4703 6.34589C22.4703 5.67118 22.233 5.43805 21.5789 5.47645L15.8877 5.80009L8.90751 6.20876C8.08744 6.25538 7.26737 6.30567 6.44729 6.35961C6.01257 6.38978 5.8151 6.58177 5.75064 7.00826C5.73419 7.13168 5.72733 7.2551 5.73007 7.37853V20.9001C5.73007 21.952 6.00983 22.2153 7.06578 22.1536C8.12172 22.0918 9.1763 22.0233 10.2432 21.9616L21.5419 21.3129C22.148 21.2786 22.4236 21.0112 22.4716 20.4092C22.4799 20.3036 22.4716 20.198 22.4716 20.0855L22.4703 6.34589ZM17.3373 9.29569V15.6862L17.1233 15.3832C15.7067 13.2287 14.2846 11.0757 12.8817 8.91445C12.6692 8.58669 12.4717 8.43036 12.0479 8.47698C11.0564 8.58944 10.0553 8.61961 9.06111 8.69915C8.93698 8.7056 8.81599 8.74046 8.70746 8.80105C8.59893 8.86165 8.50577 8.94635 8.43515 9.04864C8.36453 9.15093 8.31834 9.26807 8.30014 9.39102C8.28194 9.51398 8.29221 9.63948 8.33017 9.75783L9.46703 9.85932V19.0337C9.2147 19.105 8.96237 19.1859 8.7073 19.2476C8.5937 19.274 8.4911 19.335 8.4137 19.4222C8.33631 19.5094 8.28795 19.6186 8.27532 19.7345C8.23418 19.9278 8.28217 20.0266 8.51942 20.0101C9.32989 19.9525 10.1417 19.9141 10.9536 19.8648C11.2889 19.8549 11.6236 19.8274 11.956 19.7825C12.1542 19.7627 12.3384 19.6717 12.4745 19.5265C12.6107 19.3812 12.6896 19.1915 12.6966 18.9926C12.3003 18.9034 11.8957 18.8061 11.4898 18.7265C11.3088 18.6922 11.2484 18.6154 11.2484 18.4276V12.037C11.2484 11.9671 11.2608 11.8999 11.2745 11.782C11.3362 11.867 11.3664 11.9013 11.3883 11.9369C12.484 13.647 13.5729 15.3598 14.6755 17.0658C15.1507 17.7994 15.6376 18.5254 16.136 19.2435C16.4939 19.7633 17.0273 19.9306 17.6294 19.8044C18.0042 19.7075 18.3736 19.5907 18.7361 19.4547C18.9418 19.3903 18.9994 19.2572 18.9994 19.0392V9.65224C18.9994 9.06941 18.9994 9.06941 19.574 8.9501C20.0951 8.84725 20.2583 8.57984 20.0951 8.03541C18.9994 8.10123 17.8981 8.15746 16.7969 8.23974C16.6232 8.2601 16.4616 8.33916 16.3389 8.46385C16.2162 8.58854 16.1398 8.75137 16.1222 8.92542C16.103 9.08587 16.1456 9.16815 16.3279 9.18186C16.6612 9.20655 16.9917 9.25455 17.3373 9.29569Z" fill="white"/>
<path d="M20.7602 3.86099L20.7972 3.79105C20.7144 3.68933 20.6226 3.59524 20.5229 3.50992C19.7742 2.96275 19.0172 2.42655 18.2698 1.8876C17.7802 1.51322 17.1727 1.32534 16.557 1.35963C15.331 1.43368 14.1077 1.53105 12.8817 1.62019L5.00462 2.19204C4.43962 2.23318 3.86777 2.27707 3.31648 2.34289C3.25479 2.35523 3.19675 2.38154 3.14683 2.41982C3.0969 2.4581 3.05642 2.50731 3.02849 2.56368C3.00518 2.63088 3.11626 2.78173 3.20266 2.85167C3.81977 3.34947 4.44785 3.83905 5.07045 4.32999C5.40643 4.60975 5.83567 4.75512 6.27176 4.73729C6.48432 4.72769 6.69688 4.73729 6.90807 4.71809L12.6239 4.36702L20.2185 3.91996C20.3995 3.89893 20.5801 3.87927 20.7602 3.86099Z" fill="white"/>
</g>
<defs>
<clipPath id="clip0_3084_1385">
<rect width="24" height="24" fill="white" transform="translate(0.5)"/>
</clipPath>
</defs>
</svg>
