<svg width="25" height="24" viewBox="0 0 25 24" fill="none" xmlns="http://www.w3.org/2000/svg">
<path d="M9.25562 2.26538H12.5005V8.75513H9.25562C8.39502 8.75513 7.56968 8.41326 6.96114 7.80473C6.35261 7.19619 6.01074 6.37085 6.01074 5.51025C6.01074 4.64966 6.35261 3.82431 6.96114 3.21578C7.56968 2.60725 8.39502 2.26538 9.25562 2.26538Z" fill="#F4511E"/>
<path d="M15.7454 8.75513H12.5005V2.26538H15.7454C16.606 2.26538 17.4313 2.60725 18.0398 3.21578C18.6484 3.82431 18.9902 4.64966 18.9902 5.51025C18.9902 6.37085 18.6484 7.19619 18.0398 7.80473C17.4313 8.41326 16.606 8.75513 15.7454 8.75513Z" fill="#FF8A65"/>
<path d="M12.5005 12C12.5005 13.7921 13.9533 15.2449 15.7454 15.2449C17.5375 15.2449 18.9902 13.7921 18.9902 12C18.9902 10.2079 17.5375 8.75513 15.7454 8.75513C13.9533 8.75513 12.5005 10.2079 12.5005 12Z" fill="#29B6F6"/>
<path d="M9.25562 8.75513H12.5005V15.2449H9.25562C8.39502 15.2449 7.56968 14.903 6.96114 14.2945C6.35261 13.6859 6.01074 12.8606 6.01074 12C6.01074 11.1394 6.35261 10.3141 6.96114 9.70553C7.56968 9.097 8.39502 8.75513 9.25562 8.75513Z" fill="#7C4DFF"/>
<path d="M9.25562 15.2449H12.5005V18.4897C12.5005 19.3503 12.1586 20.1757 11.5501 20.7842C10.9416 21.3927 10.1162 21.7346 9.25562 21.7346C8.39502 21.7346 7.56968 21.3927 6.96114 20.7842C6.35261 20.1757 6.01074 19.3503 6.01074 18.4897C6.01074 17.6292 6.35261 16.8038 6.96114 16.1953C7.56968 15.5867 8.39502 15.2449 9.25562 15.2449Z" fill="#00E676"/>
</svg>
