<svg width="129" height="37" viewBox="0 0 129 37" fill="none" xmlns="http://www.w3.org/2000/svg">
<path d="M123.741 36.2734H4.75926C2.14286 36.2734 0 34.2806 0 31.8474V5.2909C0 2.85766 2.14286 0.86482 4.75926 0.86482H123.741C126.357 0.86482 128.5 2.85766 128.5 5.2909V31.8474C128.5 34.2806 126.357 36.2734 123.741 36.2734Z" fill="#343434"/>
<path d="M123.741 1.5741C125.944 1.5741 127.737 3.24162 127.737 5.2909V31.8474C127.737 33.8966 125.944 35.5642 123.741 35.5642H4.75926C2.55572 35.5642 0.762671 33.8966 0.762671 31.8474V5.2909C0.762671 3.24162 2.55572 1.5741 4.75926 1.5741H123.741ZM123.741 0.86482H4.75926C2.14286 0.86482 0 2.85766 0 5.2909V31.8474C0 34.2806 2.14286 36.2734 4.75926 36.2734H123.741C126.357 36.2734 128.5 34.2806 128.5 31.8474V5.2909C128.5 2.85766 126.357 0.86482 123.741 0.86482Z" fill="#343434"/>
<path d="M45.1363 9.93233C45.1363 10.6715 44.8983 11.2635 44.4295 11.705C43.8905 12.2284 43.1885 12.4917 42.3283 12.4917C41.5061 12.4917 40.8041 12.2239 40.2283 11.6961C39.6512 11.1606 39.3633 10.5033 39.3633 9.71656C39.3633 8.92982 39.6512 8.27255 40.2283 7.74142C40.8041 7.20918 41.5061 6.94141 42.3283 6.94141C42.7376 6.94141 43.1279 7.01997 43.5003 7.16603C43.8715 7.3132 44.1737 7.51237 44.3926 7.75802L43.8953 8.22497C43.5134 7.8056 42.9934 7.59868 42.3283 7.59868C41.7286 7.59868 41.2087 7.79343 40.7673 8.18624C40.3306 8.58016 40.1117 9.09027 40.1117 9.71656C40.1117 10.3428 40.3306 10.8574 40.7673 11.2513C41.2087 11.6397 41.7286 11.8389 42.3283 11.8389C42.9649 11.8389 43.5003 11.6397 43.9227 11.2469C44.2011 10.9868 44.3593 10.6283 44.401 10.1702H42.3283V9.53066H45.0934C45.1267 9.66898 45.1363 9.80287 45.1363 9.93233V9.93233Z" fill="white"/>
<path d="M49.5182 7.71522H46.9209V9.39713H49.2624V10.0367H46.9209V11.7186H49.5182V12.3703H46.1855V7.06348H49.5182V7.71522Z" fill="white"/>
<path d="M52.6175 12.3703H51.8822V7.71522H50.2891V7.06348H54.2119V7.71522H52.6175V12.3703V12.3703Z" fill="white"/>
<path d="M57.0469 12.3703V7.06348H57.781V12.3703H57.0469Z" fill="white"/>
<path d="M61.0394 12.3703H60.31V7.71522H58.7109V7.06348H62.6385V7.71522H61.0394V12.3703Z" fill="white"/>
<path d="M70.0645 11.6873C69.5017 12.2239 68.8045 12.4917 67.9728 12.4917C67.1364 12.4917 66.4391 12.2239 65.8764 11.6873C65.3148 11.1517 65.0352 10.4944 65.0352 9.71656C65.0352 8.93867 65.3148 8.2814 65.8764 7.74585C66.4391 7.20918 67.1364 6.94141 67.9728 6.94141C68.7997 6.94141 69.497 7.20918 70.0598 7.75027C70.6261 8.29025 70.9057 8.9431 70.9057 9.71656C70.9057 10.4944 70.6261 11.1517 70.0645 11.6873ZM66.4201 11.2424C66.8437 11.6397 67.3589 11.8389 67.9728 11.8389C68.582 11.8389 69.1019 11.6397 69.5208 11.2424C69.9431 10.8452 70.1573 10.3351 70.1573 9.71656C70.1573 9.09801 69.9431 8.58791 69.5208 8.19067C69.1019 7.79343 68.582 7.59425 67.9728 7.59425C67.3589 7.59425 66.8437 7.79343 66.4201 8.19067C65.9977 8.58791 65.7836 9.09801 65.7836 9.71656C65.7836 10.3351 65.9977 10.8452 66.4201 11.2424V11.2424Z" fill="white"/>
<path d="M71.9375 12.3703V7.06348H72.8299L75.6045 11.1908H75.6366L75.6045 10.1706V7.06348H76.3386V12.3703H75.5724L72.6669 8.03943H72.6347L72.6669 9.06406V12.3703H71.9375V12.3703Z" fill="white"/>
<path d="M64.8549 20.121C62.6192 20.121 60.7928 21.7033 60.7928 23.8865C60.7928 26.0519 62.6192 27.6508 64.8549 27.6508C67.0953 27.6508 68.9217 26.0519 68.9217 23.8865C68.9217 21.7033 67.0953 20.121 64.8549 20.121ZM64.8549 26.1681C63.6282 26.1681 62.5728 25.2264 62.5728 23.8865C62.5728 22.5288 63.6282 21.6037 64.8549 21.6037C66.0816 21.6037 67.1417 22.5288 67.1417 23.8865C67.1417 25.2264 66.0816 26.1681 64.8549 26.1681V26.1681ZM55.9919 20.121C53.7515 20.121 51.9299 21.7033 51.9299 23.8865C51.9299 26.0519 53.7515 27.6508 55.9919 27.6508C58.2312 27.6508 60.054 26.0519 60.054 23.8865C60.054 21.7033 58.2312 20.121 55.9919 20.121ZM55.9919 26.1681C54.764 26.1681 53.7051 25.2264 53.7051 23.8865C53.7051 22.5288 54.764 21.6037 55.9919 21.6037C57.2186 21.6037 58.274 22.5288 58.274 23.8865C58.274 25.2264 57.2186 26.1681 55.9919 26.1681ZM45.4454 21.2751V22.8751H49.5539C49.4337 23.7692 49.1124 24.4264 48.6198 24.8845C48.0202 25.4378 47.0862 26.0519 45.4454 26.0519C42.9171 26.0519 40.9372 24.1542 40.9372 21.8029C40.9372 19.4515 42.9171 17.5538 45.4454 17.5538C46.8125 17.5538 47.8072 18.0507 48.5413 18.6947L49.7537 17.5671C48.7269 16.6554 47.361 15.9549 45.4454 15.9549C41.9783 15.9549 39.0645 18.5785 39.0645 21.8029C39.0645 25.0273 41.9783 27.6508 45.4454 27.6508C47.3194 27.6508 48.7269 27.0799 49.8335 26.0088C50.9674 24.9542 51.3207 23.4715 51.3207 22.2743C51.3207 21.9025 51.2874 21.5606 51.2279 21.2751H45.4454ZM88.5714 22.5155C88.2371 21.6734 87.2055 20.121 85.1043 20.121C83.0221 20.121 81.2886 21.6469 81.2886 23.8865C81.2886 25.9955 83.0043 27.6508 85.3042 27.6508C87.1639 27.6508 88.2371 26.5963 88.6785 25.9822L87.2983 25.1269C86.8379 25.7532 86.2108 26.1681 85.3042 26.1681C84.4035 26.1681 83.7574 25.7841 83.3434 25.0273L88.7582 22.9437L88.5714 22.5155V22.5155ZM83.0507 23.7692C83.0043 22.3174 84.2631 21.5738 85.165 21.5738C85.8718 21.5738 86.4714 21.9025 86.6713 22.3727L83.0507 23.7692V23.7692ZM78.6496 27.4218H80.4295V16.3566H78.6496V27.4218ZM75.7345 20.9597H75.675C75.2753 20.5193 74.5126 20.121 73.5465 20.121C71.519 20.121 69.6653 21.7763 69.6653 23.8986C69.6653 26.0088 71.519 27.6508 73.5465 27.6508C74.5126 27.6508 75.2753 27.2492 75.675 26.7955H75.7345V27.3355C75.7345 28.7751 74.9076 29.5485 73.5738 29.5485C72.4863 29.5485 71.8117 28.8182 71.5333 28.2041L69.9853 28.8049C70.4315 29.803 71.613 31.0312 73.5738 31.0312C75.6608 31.0312 77.4217 29.8893 77.4217 27.1109V20.35H75.7345V20.9597V20.9597ZM73.6988 26.1681C72.4721 26.1681 71.4452 25.2132 71.4452 23.8986C71.4452 22.5719 72.4721 21.6037 73.6988 21.6037C74.9076 21.6037 75.8607 22.5719 75.8607 23.8986C75.8607 25.2132 74.9076 26.1681 73.6988 26.1681V26.1681ZM96.9049 16.3566H92.6477V27.4218H94.4229V23.2292H96.9049C98.8764 23.2292 100.81 21.9025 100.81 19.7923C100.81 17.6833 98.8717 16.3566 96.9049 16.3566V16.3566ZM96.9513 21.69H94.4229V17.8958H96.9513C98.2768 17.8958 99.0335 18.9193 99.0335 19.7923C99.0335 20.6488 98.2768 21.69 96.9513 21.69ZM107.925 20.0999C106.642 20.0999 105.309 20.6266 104.76 21.794L106.335 22.4081C106.674 21.794 107.298 21.5949 107.957 21.5949C108.878 21.5949 109.812 22.1094 109.826 23.0178V23.134C109.505 22.9614 108.817 22.7058 107.971 22.7058C106.275 22.7058 104.546 23.5744 104.546 25.1955C104.546 26.6782 105.936 27.6331 107.498 27.6331C108.692 27.6331 109.352 27.1319 109.766 26.5487H109.826V27.4041H111.541V23.1595C111.541 21.1976 109.965 20.0999 107.925 20.0999ZM107.711 26.1637C107.13 26.1637 106.321 25.8959 106.321 25.2265C106.321 24.37 107.33 24.0414 108.203 24.0414C108.985 24.0414 109.352 24.2018 109.826 24.4132C109.687 25.4378 108.739 26.1637 107.711 26.1637V26.1637ZM117.787 20.3423L115.747 25.139H115.686L113.577 20.3423H111.662L114.832 27.0456L113.023 30.7756H114.878L119.762 20.3423H117.787V20.3423ZM101.786 27.4218H103.565V16.3566H101.786V27.4218Z" fill="white"/>
<path d="M9.93556 7.53809C9.65595 7.8103 9.49414 8.23409 9.49414 8.78293V28.3595C9.49414 28.9083 9.65595 29.3321 9.93556 29.6043L10.0046 29.6641L21.8004 18.6985V18.4395L10.0046 7.47392L9.93556 7.53809Z" fill="url(#paint0_linear_963_3722)"/>
<path d="M25.7245 22.3555L21.7969 18.6984V18.4395L25.7292 14.7824L25.8173 14.83L30.4742 17.2942C31.8032 17.9936 31.8032 19.1443 30.4742 19.8481L25.8173 22.3079L25.7245 22.3555V22.3555Z" fill="url(#paint1_linear_963_3722)"/>
<path d="M25.8169 22.3079L21.7965 18.5689L9.93164 29.6042C10.3731 30.0358 11.0929 30.0878 11.9115 29.6563L25.8169 22.3079" fill="url(#paint2_linear_963_3722)"/>
<path d="M25.8169 14.8304L11.9115 7.48201C11.0929 7.05489 10.3731 7.1069 9.93164 7.53844L21.7965 18.5693L25.8169 14.8304Z" fill="url(#paint3_linear_963_3722)"/>
<defs>
<linearGradient id="paint0_linear_963_3722" x1="20.7531" y1="28.5633" x2="5.93606" y2="12.631" gradientUnits="userSpaceOnUse">
<stop stop-color="#00A0FF"/>
<stop offset="0.0066" stop-color="#00A1FF"/>
<stop offset="0.2601" stop-color="#00BEFF"/>
<stop offset="0.5122" stop-color="#00D2FF"/>
<stop offset="0.7604" stop-color="#00DFFF"/>
<stop offset="1" stop-color="#00E3FF"/>
</linearGradient>
<linearGradient id="paint1_linear_963_3722" x1="32.2048" y1="18.5677" x2="9.17294" y2="18.5677" gradientUnits="userSpaceOnUse">
<stop stop-color="#FFE000"/>
<stop offset="0.4087" stop-color="#FFBD00"/>
<stop offset="0.7754" stop-color="#FFA500"/>
<stop offset="1" stop-color="#FF9C00"/>
</linearGradient>
<linearGradient id="paint2_linear_963_3722" x1="23.6307" y1="16.5364" x2="3.53763" y2="-5.06921" gradientUnits="userSpaceOnUse">
<stop stop-color="#FF3A44"/>
<stop offset="1" stop-color="#C31162"/>
</linearGradient>
<linearGradient id="paint3_linear_963_3722" x1="6.94502" y1="36.1177" x2="15.9175" y2="26.4699" gradientUnits="userSpaceOnUse">
<stop stop-color="#32A071"/>
<stop offset="0.0685" stop-color="#2DA771"/>
<stop offset="0.4762" stop-color="#15CF74"/>
<stop offset="0.8009" stop-color="#06E775"/>
<stop offset="1" stop-color="#00F076"/>
</linearGradient>
</defs>
</svg>
